<svg xmlns="http://www.w3.org/2000/svg" xmlns:xlink="http://www.w3.org/1999/xlink" width="500" zoomAndPan="magnify" viewBox="0 0 375 149.999998" height="200" preserveAspectRatio="xMidYMid meet" version="1.0"><defs><g/><clipPath id="43bde9e5f5"><path d="M 0 18.511719 L 86 18.511719 L 86 113.851562 L 0 113.851562 Z M 0 18.511719 " clip-rule="nonzero"/></clipPath><clipPath id="be074d5ac2"><path d="M 64 0.480469 L 365.761719 0.480469 L 365.761719 137.519531 L 64 137.519531 Z M 64 0.480469 " clip-rule="nonzero"/></clipPath><clipPath id="833293bcbd"><rect x="0" width="302" y="0" height="138"/></clipPath><clipPath id="bde3b12155"><rect x="0" width="366" y="0" height="138"/></clipPath></defs><g transform="matrix(1, 0, 0, 1, 0, 6)"><g clip-path="url(#bde3b12155)"><g clip-path="url(#43bde9e5f5)"><path fill="#ffffff" d="M 39.921875 110.210938 L 56.71875 110.210938 L 56.71875 59.089844 L 39.921875 77.785156 Z M 56.71875 49.058594 L 85.871094 18.53125 L 44.367188 67.4375 L 0 113.914062 L 39.929688 66.910156 L 39.929688 33.851562 L 56.726562 33.851562 L 56.726562 49.058594 Z M 56.71875 49.058594 " fill-opacity="1" fill-rule="evenodd"/></g><g clip-path="url(#be074d5ac2)"><g transform="matrix(1, 0, 0, 1, 64, -0.000000000000007105)"><g clip-path="url(#833293bcbd)"><g fill="#ffffff" fill-opacity="1"><g transform="translate(0.454345, 109.805559)"><g><path d="M 81.90625 0 L 81.90625 -58.984375 L 78.140625 -49.28125 L 56.234375 0 L 46.765625 0 L 25.09375 -49.28125 L 21.328125 -58.984375 L 21.328125 0 L 9.015625 0 L 9.015625 -75.96875 L 27.265625 -75.96875 L 48.375 -26.015625 L 51.90625 -16.65625 L 55.4375 -25.890625 L 76.3125 -75.96875 L 94.453125 -75.96875 L 94.453125 0 Z M 81.90625 0 "/></g></g></g><g fill="#ffffff" fill-opacity="1"><g transform="translate(103.921861, 109.805559)"><g><path d="M 65.703125 0 L 63.546875 -8.890625 C 60.953125 -5.398438 57.660156 -2.644531 53.671875 -0.625 C 49.679688 1.382812 45.0625 2.390625 39.8125 2.390625 C 34.414062 2.390625 29.625 1.515625 25.4375 -0.234375 C 21.257812 -1.984375 17.742188 -4.359375 14.890625 -7.359375 C 12.035156 -10.359375 9.863281 -13.875 8.375 -17.90625 C 6.894531 -21.9375 6.15625 -26.234375 6.15625 -30.796875 L 6.15625 -44.609375 C 6.15625 -49.171875 6.972656 -53.503906 8.609375 -57.609375 C 10.242188 -61.710938 12.582031 -65.304688 15.625 -68.390625 C 18.664062 -71.472656 22.390625 -73.90625 26.796875 -75.6875 C 31.210938 -77.476562 36.234375 -78.375 41.859375 -78.375 C 46.046875 -78.375 49.789062 -77.914062 53.09375 -77 C 56.40625 -76.09375 59.332031 -74.800781 61.875 -73.125 C 64.425781 -71.445312 66.648438 -69.429688 68.546875 -67.078125 C 70.453125 -64.722656 72.164062 -62.0625 73.6875 -59.09375 L 62.75 -53.28125 C 60.613281 -57.15625 57.890625 -60.40625 54.578125 -63.03125 C 51.273438 -65.65625 47.035156 -66.96875 41.859375 -66.96875 C 38.140625 -66.96875 34.867188 -66.394531 32.046875 -65.25 C 29.234375 -64.113281 26.894531 -62.570312 25.03125 -60.625 C 23.175781 -58.6875 21.769531 -56.425781 20.8125 -53.84375 C 19.863281 -51.257812 19.390625 -48.484375 19.390625 -45.515625 L 19.390625 -30.34375 C 19.390625 -27.375 19.863281 -24.578125 20.8125 -21.953125 C 21.769531 -19.335938 23.195312 -17.078125 25.09375 -15.171875 C 27 -13.273438 29.300781 -11.773438 32 -10.671875 C 34.695312 -9.566406 37.832031 -9.015625 41.40625 -9.015625 C 44.21875 -9.015625 46.785156 -9.46875 49.109375 -10.375 C 51.429688 -11.289062 53.410156 -12.546875 55.046875 -14.140625 C 56.679688 -15.742188 57.9375 -17.585938 58.8125 -19.671875 C 59.6875 -21.765625 60.125 -23.992188 60.125 -26.359375 L 60.125 -29.203125 L 42.4375 -29.203125 L 42.4375 -39.921875 L 73.46875 -39.921875 L 73.46875 0 Z M 65.703125 0 "/></g></g></g><g fill="#ffffff" fill-opacity="1"><g transform="translate(186.399307, 109.805559)"><g><path d="M 5.703125 -29.09375 L 5.703125 -39.125 L 39.703125 -39.125 L 39.703125 -29.09375 Z M 5.703125 -29.09375 "/></g></g></g><g fill="#ffffff" fill-opacity="1"><g transform="translate(225.071204, 109.805559)"><g><path d="M 46.546875 -38.5625 L 73.921875 0 L 58.859375 0 L 38.4375 -29.65625 L 18.25 0 L 3.53125 0 L 30.921875 -38.328125 L 4.109375 -75.96875 L 19.171875 -75.96875 L 39.015625 -47 L 58.640625 -75.96875 L 73.359375 -75.96875 Z M 46.546875 -38.5625 "/></g></g></g></g></g></g></g></g></svg>