<svg xmlns="http://www.w3.org/2000/svg" xmlns:xlink="http://www.w3.org/1999/xlink" width="2000" zoomAndPan="magnify" viewBox="0 0 1500 1499.999933" height="2000" preserveAspectRatio="xMidYMid meet" version="1.0"><style>
  @media (prefers-color-scheme: dark) {
    path { fill: #ffffff; }
  }
  @media (prefers-color-scheme: light) {
    path { fill: #000000; }
  }
</style><defs><clipPath id="f7b78bbc58"><path d="M 198.5625 137.289062 L 1301.8125 137.289062 L 1301.8125 1362.789062 L 198.5625 1362.789062 Z M 198.5625 137.289062 " clip-rule="nonzero"/></clipPath><clipPath id="5e9c3ff5a3"><path d="M 750 934.757812 L 891 934.757812 L 891 1075.757812 L 750 1075.757812 Z M 750 934.757812 " clip-rule="nonzero"/></clipPath></defs><g clip-path="url(#f7b78bbc58)"><path fill="#000000" d="M 711.472656 1315.03125 L 927.277344 1315.03125 L 927.277344 658.386719 L 711.472656 898.550781 Z M 927.277344 529.542969 L 1301.8125 137.476562 L 768.554688 765.636719 L 198.5625 1362.605469 L 711.574219 758.855469 L 711.574219 334.242188 L 927.382812 334.242188 L 927.382812 529.542969 Z M 927.277344 529.542969 " fill-opacity="1" fill-rule="evenodd"/></g><g clip-path="url(#5e9c3ff5a3)"><path fill="#000000" d="M 891 1005.257812 C 891 1006.414062 890.972656 1007.566406 890.914062 1008.71875 C 890.859375 1009.871094 890.773438 1011.019531 890.660156 1012.167969 C 890.546875 1013.316406 890.40625 1014.460938 890.238281 1015.605469 C 890.066406 1016.746094 889.871094 1017.882812 889.644531 1019.011719 C 889.421875 1020.144531 889.167969 1021.269531 888.886719 1022.390625 C 888.605469 1023.507812 888.300781 1024.621094 887.964844 1025.722656 C 887.628906 1026.828125 887.265625 1027.921875 886.878906 1029.011719 C 886.488281 1030.097656 886.074219 1031.171875 885.632812 1032.238281 C 885.191406 1033.304688 884.722656 1034.359375 884.230469 1035.402344 C 883.738281 1036.445312 883.21875 1037.476562 882.675781 1038.492188 C 882.132812 1039.511719 881.5625 1040.515625 880.96875 1041.503906 C 880.375 1042.492188 879.757812 1043.46875 879.117188 1044.425781 C 878.476562 1045.386719 877.8125 1046.328125 877.125 1047.257812 C 876.4375 1048.183594 875.730469 1049.09375 874.996094 1049.984375 C 874.265625 1050.875 873.511719 1051.75 872.738281 1052.605469 C 871.960938 1053.460938 871.167969 1054.292969 870.351562 1055.109375 C 869.535156 1055.925781 868.699219 1056.722656 867.84375 1057.496094 C 866.988281 1058.269531 866.117188 1059.023438 865.226562 1059.757812 C 864.332031 1060.488281 863.421875 1061.199219 862.496094 1061.886719 C 861.570312 1062.574219 860.628906 1063.238281 859.667969 1063.878906 C 858.707031 1064.519531 857.734375 1065.136719 856.746094 1065.730469 C 855.753906 1066.324219 854.75 1066.890625 853.734375 1067.433594 C 852.714844 1067.980469 851.6875 1068.496094 850.644531 1068.992188 C 849.597656 1069.484375 848.546875 1069.953125 847.480469 1070.394531 C 846.414062 1070.835938 845.335938 1071.25 844.25 1071.636719 C 843.164062 1072.027344 842.070312 1072.386719 840.964844 1072.722656 C 839.859375 1073.058594 838.75 1073.367188 837.628906 1073.644531 C 836.511719 1073.925781 835.386719 1074.179688 834.253906 1074.40625 C 833.121094 1074.628906 831.984375 1074.828125 830.84375 1074.996094 C 829.703125 1075.164062 828.558594 1075.308594 827.410156 1075.417969 C 826.261719 1075.53125 825.113281 1075.617188 823.960938 1075.675781 C 822.808594 1075.730469 821.652344 1075.757812 820.5 1075.757812 C 819.347656 1075.757812 818.191406 1075.730469 817.039062 1075.675781 C 815.886719 1075.617188 814.738281 1075.53125 813.589844 1075.417969 C 812.441406 1075.308594 811.296875 1075.164062 810.15625 1074.996094 C 809.015625 1074.828125 807.878906 1074.628906 806.746094 1074.40625 C 805.613281 1074.179688 804.488281 1073.925781 803.371094 1073.644531 C 802.25 1073.367188 801.140625 1073.058594 800.035156 1072.722656 C 798.929688 1072.386719 797.835938 1072.027344 796.75 1071.636719 C 795.664062 1071.25 794.585938 1070.835938 793.519531 1070.394531 C 792.453125 1069.953125 791.398438 1069.484375 790.355469 1068.992188 C 789.3125 1068.496094 788.285156 1067.980469 787.265625 1067.433594 C 786.25 1066.890625 785.246094 1066.324219 784.253906 1065.730469 C 783.265625 1065.136719 782.292969 1064.519531 781.332031 1063.878906 C 780.371094 1063.238281 779.429688 1062.574219 778.503906 1061.886719 C 777.578125 1061.199219 776.667969 1060.488281 775.773438 1059.757812 C 774.882812 1059.023438 774.011719 1058.269531 773.15625 1057.496094 C 772.300781 1056.722656 771.464844 1055.925781 770.648438 1055.109375 C 769.832031 1054.292969 769.039062 1053.460938 768.261719 1052.605469 C 767.488281 1051.75 766.734375 1050.875 766.003906 1049.984375 C 765.269531 1049.09375 764.5625 1048.183594 763.875 1047.257812 C 763.1875 1046.328125 762.523438 1045.386719 761.882812 1044.425781 C 761.242188 1043.46875 760.625 1042.492188 760.03125 1041.503906 C 759.4375 1040.515625 758.867188 1039.511719 758.324219 1038.492188 C 757.78125 1037.476562 757.261719 1036.445312 756.769531 1035.402344 C 756.277344 1034.359375 755.808594 1033.304688 755.367188 1032.238281 C 754.925781 1031.171875 754.511719 1030.097656 754.121094 1029.011719 C 753.730469 1027.921875 753.371094 1026.828125 753.035156 1025.722656 C 752.699219 1024.621094 752.394531 1023.507812 752.113281 1022.390625 C 751.832031 1021.269531 751.578125 1020.144531 751.355469 1019.011719 C 751.128906 1017.882812 750.933594 1016.746094 750.761719 1015.605469 C 750.59375 1014.460938 750.453125 1013.316406 750.339844 1012.167969 C 750.226562 1011.019531 750.140625 1009.871094 750.085938 1008.71875 C 750.027344 1007.566406 750 1006.414062 750 1005.257812 C 750 1004.105469 750.027344 1002.953125 750.085938 1001.800781 C 750.140625 1000.648438 750.226562 999.496094 750.339844 998.347656 C 750.453125 997.199219 750.59375 996.054688 750.761719 994.914062 C 750.933594 993.773438 751.128906 992.636719 751.355469 991.503906 C 751.578125 990.375 751.832031 989.25 752.113281 988.128906 C 752.394531 987.011719 752.699219 985.898438 753.035156 984.792969 C 753.371094 983.691406 753.730469 982.59375 754.121094 981.507812 C 754.511719 980.421875 754.925781 979.347656 755.367188 978.28125 C 755.808594 977.214844 756.277344 976.160156 756.769531 975.117188 C 757.261719 974.074219 757.78125 973.042969 758.324219 972.027344 C 758.867188 971.007812 759.4375 970.003906 760.03125 969.015625 C 760.625 968.027344 761.242188 967.050781 761.882812 966.089844 C 762.523438 965.132812 763.1875 964.1875 763.875 963.261719 C 764.5625 962.335938 765.269531 961.425781 766.003906 960.535156 C 766.734375 959.644531 767.488281 958.769531 768.261719 957.914062 C 769.039062 957.058594 769.832031 956.222656 770.648438 955.410156 C 771.464844 954.59375 772.300781 953.796875 773.15625 953.023438 C 774.011719 952.246094 774.882812 951.492188 775.773438 950.761719 C 776.667969 950.03125 777.578125 949.320312 778.503906 948.632812 C 779.429688 947.945312 780.371094 947.28125 781.332031 946.640625 C 782.292969 946 783.265625 945.382812 784.253906 944.789062 C 785.246094 944.195312 786.25 943.628906 787.265625 943.082031 C 788.285156 942.539062 789.3125 942.019531 790.355469 941.527344 C 791.398438 941.035156 792.453125 940.566406 793.519531 940.125 C 794.585938 939.683594 795.664062 939.269531 796.75 938.878906 C 797.835938 938.492188 798.929688 938.128906 800.035156 937.796875 C 801.140625 937.460938 802.25 937.152344 803.371094 936.871094 C 804.488281 936.589844 805.613281 936.339844 806.746094 936.113281 C 807.878906 935.890625 809.015625 935.691406 810.15625 935.523438 C 811.296875 935.351562 812.441406 935.210938 813.589844 935.097656 C 814.738281 934.984375 815.886719 934.902344 817.039062 934.84375 C 818.191406 934.789062 819.347656 934.757812 820.5 934.757812 C 821.652344 934.757812 822.808594 934.789062 823.960938 934.84375 C 825.113281 934.902344 826.261719 934.984375 827.410156 935.097656 C 828.558594 935.210938 829.703125 935.351562 830.84375 935.523438 C 831.984375 935.691406 833.121094 935.890625 834.253906 936.113281 C 835.386719 936.339844 836.511719 936.589844 837.628906 936.871094 C 838.75 937.152344 839.859375 937.460938 840.964844 937.796875 C 842.070312 938.128906 843.164062 938.492188 844.25 938.878906 C 845.335938 939.269531 846.414062 939.683594 847.480469 940.125 C 848.546875 940.566406 849.597656 941.035156 850.644531 941.527344 C 851.6875 942.019531 852.714844 942.539062 853.734375 943.082031 C 854.75 943.628906 855.753906 944.195312 856.746094 944.789062 C 857.734375 945.382812 858.707031 946 859.667969 946.640625 C 860.628906 947.28125 861.570312 947.945312 862.496094 948.632812 C 863.421875 949.320312 864.332031 950.03125 865.226562 950.761719 C 866.117188 951.492188 866.988281 952.246094 867.84375 953.023438 C 868.699219 953.796875 869.535156 954.59375 870.351562 955.410156 C 871.167969 956.222656 871.960938 957.058594 872.738281 957.914062 C 873.511719 958.769531 874.265625 959.644531 874.996094 960.535156 C 875.730469 961.425781 876.4375 962.335938 877.125 963.261719 C 877.8125 964.1875 878.476562 965.132812 879.117188 966.089844 C 879.757812 967.050781 880.375 968.027344 880.96875 969.015625 C 881.5625 970.003906 882.132812 971.007812 882.675781 972.027344 C 883.21875 973.042969 883.738281 974.074219 884.230469 975.117188 C 884.722656 976.160156 885.191406 977.214844 885.632812 978.28125 C 886.074219 979.347656 886.488281 980.421875 886.878906 981.507812 C 887.265625 982.59375 887.628906 983.691406 887.964844 984.792969 C 888.300781 985.898438 888.605469 987.011719 888.886719 988.128906 C 889.167969 989.25 889.421875 990.375 889.644531 991.503906 C 889.871094 992.636719 890.066406 993.773438 890.238281 994.914062 C 890.40625 996.054688 890.546875 997.199219 890.660156 998.347656 C 890.773438 999.496094 890.859375 1000.648438 890.914062 1001.800781 C 890.972656 1002.953125 891 1004.105469 891 1005.257812 Z M 891 1005.257812 " fill-opacity="1" fill-rule="nonzero"/></g></svg>